<svg width="13" height="15" viewBox="0 0 13 15" fill="none" xmlns="http://www.w3.org/2000/svg">
<path d="M12.847 7.66695C12.747 7.55992 12.6127 7.5 12.4729 7.5C12.3331 7.5 12.1989 7.55992 12.0989 7.66695L6.5 13.6466L0.902257 7.66695C0.802244 7.55992 0.667986 7.5 0.52818 7.5C0.388374 7.5 0.254113 7.55992 0.154099 7.66695C0.105331 7.71897 0.0665689 7.78117 0.0401018 7.84988C0.0136347 7.91859 3.39018e-09 7.99241 0 8.06698C-3.39018e-09 8.14156 0.0136347 8.21538 0.0401018 8.28408C0.0665689 8.35279 0.105331 8.41499 0.154099 8.46701L6.10912 14.8258C6.2137 14.9375 6.35396 15 6.5 15C6.64604 15 6.7863 14.9375 6.89088 14.8258L12.8459 8.46701C12.8947 8.41499 12.9334 8.35279 12.9599 8.28408C12.9864 8.21538 13 8.14156 13 8.06698C13 7.99241 12.9864 7.91859 12.9599 7.84988C12.9334 7.78117 12.8958 7.71897 12.847 7.66695Z" fill="white"/>
<path d="M12.847 3.91695C12.747 3.80992 12.6127 3.75 12.4729 3.75C12.3331 3.75 12.1989 3.80992 12.0989 3.91695L6.5 9.89658L0.902257 3.91695C0.802244 3.80992 0.667986 3.75 0.52818 3.75C0.388374 3.75 0.254113 3.80992 0.154099 3.91695C0.105331 3.96897 0.0665689 4.03117 0.0401018 4.09988C0.0136347 4.16859 3.39018e-09 4.24241 0 4.31698C-3.39018e-09 4.39156 0.0136347 4.46538 0.0401018 4.53408C0.0665689 4.60279 0.105331 4.66499 0.154099 4.71701L6.10912 11.0758C6.2137 11.1875 6.35396 11.25 6.5 11.25C6.64604 11.25 6.7863 11.1875 6.89088 11.0758L12.8459 4.71701C12.8947 4.66499 12.9334 4.60279 12.9599 4.53408C12.9864 4.46538 13 4.39156 13 4.31698C13 4.24241 12.9864 4.16859 12.9599 4.09988C12.9334 4.03117 12.8958 3.96897 12.847 3.91695Z" fill="white"/>
<path d="M12.847 0.16695C12.747 0.0599204 12.6127 5.07917e-07 12.4729 5.0204e-07C12.3331 4.96164e-07 12.1989 0.0599203 12.0989 0.16695L6.5 6.14658L0.902257 0.16695C0.802244 0.0599198 0.667986 5.87607e-09 0.52818 0C0.388374 -5.87607e-09 0.254113 0.0599198 0.154099 0.16695C0.105331 0.218974 0.0665689 0.281175 0.0401018 0.349881C0.0136347 0.418588 3.39018e-09 0.492407 0 0.566982C-3.39018e-09 0.641557 0.0136347 0.715377 0.0401018 0.784083C0.0665689 0.85279 0.105331 0.914991 0.154099 0.967015L6.10912 7.32581C6.2137 7.4375 6.35396 7.5 6.5 7.5C6.64604 7.5 6.7863 7.4375 6.89088 7.32581L12.8459 0.967015C12.8947 0.914991 12.9334 0.85279 12.9599 0.784084C12.9864 0.715378 13 0.641558 13 0.566982C13 0.492407 12.9864 0.418588 12.9599 0.349882C12.9334 0.281175 12.8958 0.218974 12.847 0.16695Z" fill="white"/>
</svg>
