<svg width="100" height="100" viewBox="0 0 100 100" fill="none" xmlns="http://www.w3.org/2000/svg">
<path fill-rule="evenodd" clip-rule="evenodd" d="M100 0H0V15.3061H35.7143V30.6122H0V100H100V0Z" fill="white"/>
<path d="M4.94238 81.2256C4.36361 81.2256 3.80762 81.1117 3.27441 80.8838C2.74577 80.6559 2.27637 80.3278 1.86621 79.8994C1.46061 79.471 1.13704 78.9492 0.895508 78.334C0.653971 77.7142 0.533203 77.0169 0.533203 76.2422C0.533203 75.4674 0.651693 74.7656 0.888672 74.1367C1.12565 73.5033 1.45378 72.9587 1.87305 72.5029C2.28776 72.0518 2.77767 71.7031 3.34277 71.457C3.90788 71.2109 4.51172 71.0879 5.1543 71.0879C5.63281 71.0879 6.06576 71.1471 6.45312 71.2656C6.84049 71.3841 7.20964 71.5505 7.56055 71.7646L7.84082 71.2998H8.3877L8.44922 74.7588H7.88867C7.81576 74.4215 7.70638 74.057 7.56055 73.665C7.41471 73.2686 7.24382 72.9336 7.04785 72.6602C6.8291 72.3503 6.56934 72.1087 6.26855 71.9355C5.96777 71.7578 5.6237 71.6689 5.23633 71.6689C4.79427 71.6689 4.38184 71.7669 3.99902 71.9629C3.62077 72.1589 3.29264 72.4482 3.01465 72.8311C2.75033 73.2002 2.54297 73.6696 2.39258 74.2393C2.24219 74.8089 2.16699 75.4447 2.16699 76.1465C2.16699 76.7663 2.24447 77.3359 2.39941 77.8555C2.55892 78.3704 2.78451 78.8239 3.07617 79.2158C3.36784 79.6032 3.71191 79.9062 4.1084 80.125C4.50944 80.3438 4.95605 80.4531 5.44824 80.4531C5.81738 80.4531 6.1569 80.3962 6.4668 80.2822C6.77669 80.1637 7.04557 80.0088 7.27344 79.8174C7.5013 79.6169 7.70182 79.389 7.875 79.1338C8.04818 78.8786 8.18945 78.6006 8.29883 78.2998L8.81152 78.5459C8.4196 79.5075 7.90007 80.1956 7.25293 80.6104C6.60579 81.0205 5.83561 81.2256 4.94238 81.2256ZM17.273 80.877C17.0589 80.9544 16.8697 81.016 16.7057 81.0615C16.5462 81.1117 16.3639 81.1367 16.1588 81.1367C15.8033 81.1367 15.5185 81.0547 15.3043 80.8906C15.0947 80.722 14.9602 80.4782 14.901 80.1592H14.86C14.5637 80.4873 14.2447 80.738 13.9029 80.9111C13.5657 81.0843 13.1578 81.1709 12.6793 81.1709C12.1734 81.1709 11.7564 81.016 11.4283 80.7061C11.1048 80.3962 10.943 79.9906 10.943 79.4893C10.943 79.2295 10.9794 78.9971 11.0523 78.792C11.1253 78.5869 11.2346 78.4023 11.3805 78.2383C11.4944 78.1016 11.6448 77.9808 11.8316 77.876C12.0185 77.7666 12.1939 77.68 12.358 77.6162C12.5631 77.5387 12.9778 77.3952 13.6021 77.1855C14.2311 76.9759 14.6549 76.8118 14.8736 76.6934V76.0166C14.8736 75.9574 14.86 75.8434 14.8326 75.6748C14.8098 75.5062 14.7574 75.3467 14.6754 75.1963C14.5842 75.0277 14.4544 74.8818 14.2857 74.7588C14.1217 74.6312 13.887 74.5674 13.5816 74.5674C13.372 74.5674 13.176 74.6038 12.9937 74.6768C12.816 74.7451 12.6907 74.818 12.6178 74.8955C12.6178 74.9867 12.6383 75.1211 12.6793 75.2988C12.7249 75.4766 12.7477 75.6406 12.7477 75.791C12.7477 75.9505 12.6747 76.0964 12.5289 76.2285C12.3876 76.3607 12.1894 76.4268 11.9342 76.4268C11.7063 76.4268 11.5377 76.347 11.4283 76.1875C11.3235 76.0234 11.2711 75.8411 11.2711 75.6406C11.2711 75.431 11.344 75.2305 11.4898 75.0391C11.6402 74.8477 11.8339 74.6768 12.0709 74.5264C12.276 74.3988 12.5243 74.2917 12.816 74.2051C13.1077 74.1139 13.3925 74.0684 13.6705 74.0684C14.0533 74.0684 14.386 74.0957 14.6686 74.1504C14.9557 74.2005 15.2154 74.3122 15.4479 74.4854C15.6803 74.654 15.8557 74.8841 15.9742 75.1758C16.0973 75.4629 16.1588 75.8343 16.1588 76.29C16.1588 76.9417 16.152 77.5205 16.1383 78.0264C16.1246 78.5277 16.1178 79.0768 16.1178 79.6738C16.1178 79.8516 16.1474 79.9928 16.2066 80.0977C16.2704 80.2025 16.3661 80.2913 16.4937 80.3643C16.5621 80.4053 16.6692 80.4281 16.815 80.4326C16.9654 80.4372 17.1181 80.4395 17.273 80.4395V80.877ZM14.8873 77.2676C14.4999 77.3815 14.1604 77.4932 13.8687 77.6025C13.5771 77.7119 13.3059 77.8486 13.0553 78.0127C12.8274 78.1676 12.6474 78.3522 12.5152 78.5664C12.3831 78.776 12.317 79.0267 12.317 79.3184C12.317 79.6966 12.415 79.9746 12.6109 80.1523C12.8115 80.3301 13.0644 80.4189 13.3697 80.4189C13.6933 80.4189 13.9781 80.3415 14.2242 80.1865C14.4703 80.027 14.6777 79.8402 14.8463 79.626L14.8873 77.2676ZM24.5041 75.1279C24.5041 75.3604 24.4471 75.5677 24.3332 75.75C24.2193 75.9277 24.0438 76.0166 23.8068 76.0166C23.5516 76.0166 23.3557 75.9505 23.2189 75.8184C23.0868 75.6862 23.0207 75.5404 23.0207 75.3809C23.0207 75.2806 23.0275 75.1895 23.0412 75.1074C23.0594 75.0254 23.0754 74.9434 23.0891 74.8613C22.8749 74.8613 22.6242 74.9479 22.3371 75.1211C22.05 75.2943 21.8062 75.5404 21.6057 75.8594V79.7832C21.6057 79.9427 21.6353 80.0726 21.6945 80.1729C21.7583 80.2731 21.8563 80.3483 21.9885 80.3984C22.1024 80.444 22.2482 80.4782 22.426 80.501C22.6083 80.5238 22.7655 80.5397 22.8977 80.5488V81H19.343V80.5488C19.4478 80.5397 19.5549 80.5306 19.6643 80.5215C19.7782 80.5124 19.8762 80.4941 19.9582 80.4668C20.0858 80.4258 20.1792 80.3551 20.2385 80.2549C20.3023 80.1501 20.3342 80.0156 20.3342 79.8516V75.6885C20.3342 75.5472 20.3 75.4082 20.2316 75.2715C20.1678 75.1348 20.0767 75.0254 19.9582 74.9434C19.8716 74.8887 19.7691 74.8499 19.6506 74.8271C19.5321 74.7998 19.4045 74.7816 19.2678 74.7725V74.3281L21.51 74.1777L21.6057 74.2734V75.2236H21.6398C21.9224 74.8545 22.2368 74.5742 22.5832 74.3828C22.9296 74.1914 23.2463 74.0957 23.5334 74.0957C23.8205 74.0957 24.0529 74.1891 24.2307 74.376C24.413 74.5628 24.5041 74.8135 24.5041 75.1279ZM30.6482 80.7061C30.352 80.8291 30.0717 80.9316 29.8074 81.0137C29.5431 81.1003 29.2195 81.1436 28.8367 81.1436C28.2716 81.1436 27.8729 81.0023 27.6404 80.7197C27.4126 80.4326 27.2986 80.0293 27.2986 79.5098V74.9434H26.0818V74.2871H27.326V72.1885H28.5701V74.2871H30.5047V74.9434H28.5838V78.71C28.5838 78.9925 28.5929 79.2295 28.6111 79.4209C28.6339 79.6077 28.6841 79.7718 28.7615 79.9131C28.8344 80.0452 28.9438 80.1455 29.0896 80.2139C29.2355 80.2822 29.4314 80.3164 29.6775 80.3164C29.7915 80.3164 29.9578 80.3073 30.1766 80.2891C30.3999 80.2663 30.5571 80.2389 30.6482 80.207V80.7061ZM38.7133 79.4141C38.4307 79.9518 38.0525 80.3802 37.5785 80.6992C37.1046 81.0182 36.56 81.1777 35.9447 81.1777C35.4024 81.1777 34.9262 81.082 34.516 80.8906C34.1104 80.6992 33.7755 80.4395 33.5111 80.1113C33.2468 79.7832 33.0486 79.4004 32.9164 78.9629C32.7888 78.5254 32.725 78.0628 32.725 77.5752C32.725 77.1377 32.7934 76.7093 32.9301 76.29C33.0714 75.8662 33.2764 75.4857 33.5453 75.1484C33.8051 74.8249 34.1264 74.5651 34.5092 74.3691C34.8965 74.1686 35.3295 74.0684 35.808 74.0684C36.3002 74.0684 36.7217 74.1458 37.0727 74.3008C37.4236 74.4557 37.7084 74.6676 37.9271 74.9365C38.1368 75.1917 38.2917 75.4925 38.392 75.8389C38.4968 76.1852 38.5492 76.5612 38.5492 76.9668V77.418H34.0854C34.0854 77.86 34.1264 78.2611 34.2084 78.6211C34.295 78.9811 34.4294 79.2979 34.6117 79.5713C34.7895 79.8356 35.0219 80.0452 35.309 80.2002C35.5961 80.3506 35.9379 80.4258 36.3344 80.4258C36.74 80.4258 37.0886 80.3324 37.3803 80.1455C37.6765 79.9541 37.9613 79.6123 38.2348 79.1201L38.7133 79.4141ZM37.2025 76.8438C37.2025 76.5885 37.1798 76.3151 37.1342 76.0234C37.0932 75.7318 37.0248 75.488 36.9291 75.292C36.8243 75.0824 36.6807 74.9115 36.4984 74.7793C36.3161 74.6471 36.0814 74.5811 35.7943 74.5811C35.3158 74.5811 34.9171 74.7816 34.598 75.1826C34.2836 75.5791 34.1127 76.1328 34.0854 76.8438H37.2025ZM45.3428 77.6982C45.5296 77.8623 45.6732 78.0514 45.7734 78.2656C45.8737 78.4798 45.9238 78.7419 45.9238 79.0518C45.9238 79.6761 45.6891 80.1865 45.2197 80.583C44.7549 80.9795 44.151 81.1777 43.4082 81.1777C43.0163 81.1777 42.654 81.1071 42.3213 80.9658C41.9932 80.8245 41.7585 80.6947 41.6172 80.5762L41.4805 81.0205H40.9678L40.8994 78.6758H41.3711C41.4076 78.8535 41.485 79.0609 41.6035 79.2979C41.722 79.5348 41.8656 79.749 42.0342 79.9404C42.2119 80.141 42.4238 80.3096 42.6699 80.4463C42.9206 80.583 43.2008 80.6514 43.5107 80.6514C43.9482 80.6514 44.2855 80.5534 44.5225 80.3574C44.7594 80.1569 44.8779 79.8721 44.8779 79.5029C44.8779 79.3115 44.8392 79.1475 44.7617 79.0107C44.6888 78.8695 44.5794 78.7464 44.4336 78.6416C44.2832 78.5368 44.0986 78.4434 43.8799 78.3613C43.6611 78.2747 43.4173 78.1904 43.1484 78.1084C42.9342 78.0446 42.695 77.958 42.4307 77.8486C42.1709 77.7347 41.9476 77.6025 41.7607 77.4521C41.5602 77.2926 41.3962 77.0967 41.2686 76.8643C41.141 76.6318 41.0771 76.3584 41.0771 76.0439C41.0771 75.4925 41.2822 75.0254 41.6924 74.6426C42.1025 74.2598 42.6517 74.0684 43.3398 74.0684C43.6042 74.0684 43.873 74.1025 44.1465 74.1709C44.4245 74.2393 44.6501 74.3213 44.8232 74.417L44.9805 74.0615H45.4727L45.5752 76.2285H45.1035C45.0078 75.7454 44.8005 75.3535 44.4814 75.0527C44.167 74.7474 43.7819 74.5947 43.3262 74.5947C42.9525 74.5947 42.6585 74.6882 42.4443 74.875C42.2301 75.0618 42.123 75.2874 42.123 75.5518C42.123 75.7568 42.1572 75.9277 42.2256 76.0645C42.2985 76.2012 42.4056 76.3174 42.5469 76.4131C42.6836 76.5042 42.8545 76.5908 43.0596 76.6729C43.2692 76.7503 43.5267 76.8392 43.832 76.9395C44.1328 77.0352 44.4154 77.1468 44.6797 77.2744C44.9486 77.402 45.1696 77.5433 45.3428 77.6982ZM3.7666 97H0.505859V96.5488C0.610677 96.5397 0.717773 96.5306 0.827148 96.5215C0.941081 96.5124 1.03906 96.4941 1.12109 96.4668C1.2487 96.4258 1.34212 96.3551 1.40137 96.2549C1.46517 96.1501 1.49707 96.0156 1.49707 95.8516V91.6885C1.49707 91.5426 1.46289 91.4105 1.39453 91.292C1.33073 91.1689 1.23958 91.0664 1.12109 90.9844C1.03451 90.9297 0.90918 90.8841 0.745117 90.8477C0.581055 90.8066 0.430664 90.7816 0.293945 90.7725V90.3281L2.67285 90.1777L2.76855 90.2734V95.7695C2.76855 95.929 2.79818 96.0612 2.85742 96.166C2.92122 96.2708 3.01921 96.3483 3.15137 96.3984C3.25163 96.4395 3.34961 96.4736 3.44531 96.501C3.54102 96.5238 3.64811 96.5397 3.7666 96.5488V97ZM2.90527 87.5186C2.90527 87.7783 2.81868 88.0062 2.64551 88.2021C2.47689 88.3936 2.26725 88.4893 2.0166 88.4893C1.78418 88.4893 1.58138 88.3981 1.4082 88.2158C1.23958 88.029 1.15527 87.8171 1.15527 87.5801C1.15527 87.3294 1.23958 87.1107 1.4082 86.9238C1.58138 86.737 1.78418 86.6436 2.0166 86.6436C2.27637 86.6436 2.48828 86.7324 2.65234 86.9102C2.82096 87.0833 2.90527 87.2861 2.90527 87.5186ZM13.4381 97H10.1363V96.5488C10.2411 96.5397 10.3551 96.5306 10.4781 96.5215C10.6057 96.5124 10.7105 96.4941 10.7926 96.4668C10.9202 96.4258 11.0136 96.3551 11.0729 96.2549C11.1367 96.1501 11.1686 96.0156 11.1686 95.8516V92.3857C11.1686 91.9072 11.0546 91.5381 10.8268 91.2783C10.6035 91.0186 10.33 90.8887 10.0064 90.8887C9.76491 90.8887 9.54388 90.9274 9.34336 91.0049C9.14284 91.0778 8.9651 91.1689 8.81016 91.2783C8.65977 91.3831 8.539 91.4971 8.44785 91.6201C8.36126 91.7386 8.29746 91.8343 8.25645 91.9072V95.7832C8.25645 95.9382 8.28835 96.0658 8.35215 96.166C8.41595 96.2663 8.51165 96.3438 8.63926 96.3984C8.73496 96.444 8.8375 96.4782 8.94688 96.501C9.06081 96.5238 9.17702 96.5397 9.29551 96.5488V97H5.99375V96.5488C6.09857 96.5397 6.20566 96.5306 6.31504 96.5215C6.42897 96.5124 6.52695 96.4941 6.60898 96.4668C6.73659 96.4258 6.83001 96.3551 6.88926 96.2549C6.95306 96.1501 6.98496 96.0156 6.98496 95.8516V91.6885C6.98496 91.5335 6.95078 91.3923 6.88242 91.2646C6.81862 91.1325 6.72747 91.0254 6.60898 90.9434C6.5224 90.8887 6.41986 90.8499 6.30137 90.8271C6.18288 90.7998 6.05527 90.7816 5.91855 90.7725V90.3281L8.16074 90.1777L8.25645 90.2734V91.2236H8.29063C8.4 91.1143 8.53672 90.9844 8.70078 90.834C8.86484 90.679 9.01979 90.5537 9.16563 90.458C9.33424 90.3486 9.53477 90.2575 9.76719 90.1846C9.99961 90.1117 10.2617 90.0752 10.5533 90.0752C11.2005 90.0752 11.679 90.278 11.9889 90.6836C12.3033 91.0846 12.4605 91.6201 12.4605 92.29V95.7969C12.4605 95.9564 12.4879 96.0863 12.5426 96.1865C12.5973 96.2822 12.6907 96.3574 12.8229 96.4121C12.9322 96.4577 13.0257 96.4896 13.1031 96.5078C13.1852 96.526 13.2968 96.5397 13.4381 96.5488V97ZM19.8283 96.7061C19.5321 96.8291 19.2518 96.9316 18.9875 97.0137C18.7232 97.1003 18.3996 97.1436 18.0168 97.1436C17.4517 97.1436 17.0529 97.0023 16.8205 96.7197C16.5926 96.4326 16.4787 96.0293 16.4787 95.5098V90.9434H15.2619V90.2871H16.5061V88.1885H17.7502V90.2871H19.6848V90.9434H17.7639V94.71C17.7639 94.9925 17.773 95.2295 17.7912 95.4209C17.814 95.6077 17.8641 95.7718 17.9416 95.9131C18.0145 96.0452 18.1239 96.1455 18.2697 96.2139C18.4156 96.2822 18.6115 96.3164 18.8576 96.3164C18.9715 96.3164 19.1379 96.3073 19.3566 96.2891C19.5799 96.2663 19.7372 96.2389 19.8283 96.207V96.7061ZM27.8934 95.4141C27.6108 95.9518 27.2326 96.3802 26.7586 96.6992C26.2846 97.0182 25.74 97.1777 25.1248 97.1777C24.5825 97.1777 24.1063 97.082 23.6961 96.8906C23.2905 96.6992 22.9555 96.4395 22.6912 96.1113C22.4269 95.7832 22.2286 95.4004 22.0965 94.9629C21.9689 94.5254 21.9051 94.0628 21.9051 93.5752C21.9051 93.1377 21.9734 92.7093 22.1102 92.29C22.2514 91.8662 22.4565 91.4857 22.7254 91.1484C22.9852 90.8249 23.3064 90.5651 23.6893 90.3691C24.0766 90.1686 24.5096 90.0684 24.9881 90.0684C25.4803 90.0684 25.9018 90.1458 26.2527 90.3008C26.6036 90.4557 26.8885 90.6676 27.1072 90.9365C27.3169 91.1917 27.4718 91.4925 27.5721 91.8389C27.6769 92.1852 27.7293 92.5612 27.7293 92.9668V93.418H23.2654C23.2654 93.86 23.3064 94.2611 23.3885 94.6211C23.4751 94.9811 23.6095 95.2979 23.7918 95.5713C23.9695 95.8356 24.202 96.0452 24.4891 96.2002C24.7762 96.3506 25.118 96.4258 25.5145 96.4258C25.9201 96.4258 26.2687 96.3324 26.5604 96.1455C26.8566 95.9541 27.1414 95.6123 27.4148 95.1201L27.8934 95.4141ZM26.3826 92.8438C26.3826 92.5885 26.3598 92.3151 26.3143 92.0234C26.2732 91.7318 26.2049 91.488 26.1092 91.292C26.0044 91.0824 25.8608 90.9115 25.6785 90.7793C25.4962 90.6471 25.2615 90.5811 24.9744 90.5811C24.4959 90.5811 24.0971 90.7816 23.7781 91.1826C23.4637 91.5791 23.2928 92.1328 23.2654 92.8438H26.3826ZM35.2338 91.1279C35.2338 91.3604 35.1768 91.5677 35.0629 91.75C34.949 91.9277 34.7735 92.0166 34.5365 92.0166C34.2813 92.0166 34.0854 91.9505 33.9486 91.8184C33.8165 91.6862 33.7504 91.5404 33.7504 91.3809C33.7504 91.2806 33.7572 91.1895 33.7709 91.1074C33.7891 91.0254 33.8051 90.9434 33.8188 90.8613C33.6046 90.8613 33.3539 90.9479 33.0668 91.1211C32.7797 91.2943 32.5359 91.5404 32.3354 91.8594V95.7832C32.3354 95.9427 32.365 96.0726 32.4242 96.1729C32.488 96.2731 32.586 96.3483 32.7182 96.3984C32.8321 96.444 32.9779 96.4782 33.1557 96.501C33.338 96.5238 33.4952 96.5397 33.6273 96.5488V97H30.0727V96.5488C30.1775 96.5397 30.2846 96.5306 30.3939 96.5215C30.5079 96.5124 30.6059 96.4941 30.6879 96.4668C30.8155 96.4258 30.9089 96.3551 30.9682 96.2549C31.032 96.1501 31.0639 96.0156 31.0639 95.8516V91.6885C31.0639 91.5472 31.0297 91.4082 30.9613 91.2715C30.8975 91.1348 30.8064 91.0254 30.6879 90.9434C30.6013 90.8887 30.4988 90.8499 30.3803 90.8271C30.2618 90.7998 30.1342 90.7816 29.9975 90.7725V90.3281L32.2396 90.1777L32.3354 90.2734V91.2236H32.3695C32.6521 90.8545 32.9665 90.5742 33.3129 90.3828C33.6592 90.1914 33.976 90.0957 34.2631 90.0957C34.5502 90.0957 34.7826 90.1891 34.9604 90.376C35.1426 90.5628 35.2338 90.8135 35.2338 91.1279ZM43.5996 96.877C43.3854 96.9544 43.1963 97.016 43.0322 97.0615C42.8727 97.1117 42.6904 97.1367 42.4854 97.1367C42.1299 97.1367 41.8451 97.0547 41.6309 96.8906C41.4212 96.722 41.2868 96.4782 41.2275 96.1592H41.1865C40.8903 96.4873 40.5713 96.738 40.2295 96.9111C39.8923 97.0843 39.4844 97.1709 39.0059 97.1709C38.5 97.1709 38.083 97.016 37.7549 96.7061C37.4313 96.3962 37.2695 95.9906 37.2695 95.4893C37.2695 95.2295 37.306 94.9971 37.3789 94.792C37.4518 94.5869 37.5612 94.4023 37.707 94.2383C37.821 94.1016 37.9714 93.9808 38.1582 93.876C38.3451 93.7666 38.5205 93.68 38.6846 93.6162C38.8896 93.5387 39.3044 93.3952 39.9287 93.1855C40.5576 92.9759 40.9814 92.8118 41.2002 92.6934V92.0166C41.2002 91.9574 41.1865 91.8434 41.1592 91.6748C41.1364 91.5062 41.084 91.3467 41.002 91.1963C40.9108 91.0277 40.7809 90.8818 40.6123 90.7588C40.4482 90.6312 40.2135 90.5674 39.9082 90.5674C39.6986 90.5674 39.5026 90.6038 39.3203 90.6768C39.1426 90.7451 39.0173 90.818 38.9443 90.8955C38.9443 90.9867 38.9648 91.1211 39.0059 91.2988C39.0514 91.4766 39.0742 91.6406 39.0742 91.791C39.0742 91.9505 39.0013 92.0964 38.8555 92.2285C38.7142 92.3607 38.516 92.4268 38.2607 92.4268C38.0329 92.4268 37.8643 92.347 37.7549 92.1875C37.6501 92.0234 37.5977 91.8411 37.5977 91.6406C37.5977 91.431 37.6706 91.2305 37.8164 91.0391C37.9668 90.8477 38.1605 90.6768 38.3975 90.5264C38.6025 90.3988 38.8509 90.2917 39.1426 90.2051C39.4342 90.1139 39.7191 90.0684 39.9971 90.0684C40.3799 90.0684 40.7126 90.0957 40.9951 90.1504C41.2822 90.2005 41.542 90.3122 41.7744 90.4854C42.0068 90.654 42.1823 90.8841 42.3008 91.1758C42.4238 91.4629 42.4854 91.8343 42.4854 92.29C42.4854 92.9417 42.4785 93.5205 42.4648 94.0264C42.4512 94.5277 42.4443 95.0768 42.4443 95.6738C42.4443 95.8516 42.474 95.9928 42.5332 96.0977C42.597 96.2025 42.6927 96.2913 42.8203 96.3643C42.8887 96.4053 42.9958 96.4281 43.1416 96.4326C43.292 96.4372 43.4447 96.4395 43.5996 96.4395V96.877ZM41.2139 93.2676C40.8265 93.3815 40.487 93.4932 40.1953 93.6025C39.9036 93.7119 39.6325 93.8486 39.3818 94.0127C39.154 94.1676 38.974 94.3522 38.8418 94.5664C38.7096 94.776 38.6436 95.0267 38.6436 95.3184C38.6436 95.6966 38.7415 95.9746 38.9375 96.1523C39.138 96.3301 39.391 96.4189 39.6963 96.4189C40.0199 96.4189 40.3047 96.3415 40.5508 96.1865C40.7969 96.027 41.0042 95.8402 41.1729 95.626L41.2139 93.2676ZM48.7867 97.1777C47.8115 97.1777 47.0481 96.8542 46.4967 96.207C45.9452 95.5599 45.6695 94.6917 45.6695 93.6025C45.6695 93.1286 45.7424 92.6865 45.8883 92.2764C46.0387 91.8617 46.2551 91.4857 46.5377 91.1484C46.8066 90.8249 47.1438 90.5651 47.5494 90.3691C47.955 90.1686 48.3971 90.0684 48.8756 90.0684C49.5364 90.0684 50.0742 90.2279 50.4889 90.5469C50.9036 90.8613 51.1109 91.292 51.1109 91.8389C51.1109 92.0667 51.0563 92.2695 50.9469 92.4473C50.8375 92.6204 50.6575 92.707 50.4068 92.707C50.138 92.707 49.9283 92.6387 49.7779 92.502C49.6321 92.3652 49.5592 92.2126 49.5592 92.0439C49.5592 91.8389 49.5865 91.6292 49.6412 91.415C49.6959 91.1963 49.7278 91.0368 49.7369 90.9365C49.6549 90.7952 49.5318 90.7018 49.3678 90.6562C49.2083 90.6061 49.0351 90.5811 48.8482 90.5811C48.6295 90.5811 48.4199 90.6289 48.2193 90.7246C48.0234 90.8158 47.832 90.9867 47.6451 91.2373C47.4765 91.4652 47.3398 91.7728 47.235 92.1602C47.1301 92.5475 47.0777 93.0101 47.0777 93.5479C47.0777 94.3955 47.2646 95.0882 47.6383 95.626C48.0165 96.1592 48.511 96.4258 49.1217 96.4258C49.5637 96.4258 49.9329 96.3187 50.2291 96.1045C50.5299 95.8903 50.8079 95.569 51.0631 95.1406L51.5006 95.4277C51.1998 95.9655 50.8033 96.3916 50.3111 96.7061C49.8189 97.0205 49.3108 97.1777 48.7867 97.1777ZM57.59 96.7061C57.2938 96.8291 57.0135 96.9316 56.7492 97.0137C56.4849 97.1003 56.1613 97.1436 55.7785 97.1436C55.2134 97.1436 54.8146 97.0023 54.5822 96.7197C54.3544 96.4326 54.2404 96.0293 54.2404 95.5098V90.9434H53.0236V90.2871H54.2678V88.1885H55.5119V90.2871H57.4465V90.9434H55.5256V94.71C55.5256 94.9925 55.5347 95.2295 55.5529 95.4209C55.5757 95.6077 55.6258 95.7718 55.7033 95.9131C55.7762 96.0452 55.8856 96.1455 56.0314 96.2139C56.1773 96.2822 56.3732 96.3164 56.6193 96.3164C56.7333 96.3164 56.8996 96.3073 57.1184 96.2891C57.3417 96.2663 57.4989 96.2389 57.59 96.207V96.7061ZM62.9412 97H59.6805V96.5488C59.7853 96.5397 59.8924 96.5306 60.0018 96.5215C60.1157 96.5124 60.2137 96.4941 60.2957 96.4668C60.4233 96.4258 60.5167 96.3551 60.576 96.2549C60.6398 96.1501 60.6717 96.0156 60.6717 95.8516V91.6885C60.6717 91.5426 60.6375 91.4105 60.5691 91.292C60.5053 91.1689 60.4142 91.0664 60.2957 90.9844C60.2091 90.9297 60.0838 90.8841 59.9197 90.8477C59.7557 90.8066 59.6053 90.7816 59.4686 90.7725V90.3281L61.8475 90.1777L61.9432 90.2734V95.7695C61.9432 95.929 61.9728 96.0612 62.032 96.166C62.0958 96.2708 62.1938 96.3483 62.326 96.3984C62.4262 96.4395 62.5242 96.4736 62.6199 96.501C62.7156 96.5238 62.8227 96.5397 62.9412 96.5488V97ZM62.0799 87.5186C62.0799 87.7783 61.9933 88.0062 61.8201 88.2021C61.6515 88.3936 61.4419 88.4893 61.1912 88.4893C60.9588 88.4893 60.756 88.3981 60.5828 88.2158C60.4142 88.029 60.3299 87.8171 60.3299 87.5801C60.3299 87.3294 60.4142 87.1107 60.5828 86.9238C60.756 86.737 60.9588 86.6436 61.1912 86.6436C61.451 86.6436 61.6629 86.7324 61.827 86.9102C61.9956 87.0833 62.0799 87.2861 62.0799 87.5186ZM71.8266 90.6768C71.6215 90.7132 71.4255 90.7884 71.2387 90.9023C71.0564 91.0117 70.8992 91.2077 70.767 91.4902C70.4981 92.1009 70.2201 92.7389 69.933 93.4043C69.6459 94.0651 69.3474 94.7601 69.0375 95.4893C68.9464 95.6989 68.8484 95.9473 68.7436 96.2344C68.6433 96.5215 68.5499 96.7972 68.4633 97.0615H67.9301C67.4971 95.9906 67.0984 95.0153 66.7338 94.1357C66.3692 93.2516 65.9909 92.347 65.599 91.4219C65.5079 91.2122 65.3598 91.0505 65.1547 90.9365C64.9542 90.818 64.7514 90.7428 64.5463 90.7109V90.2598H67.6635V90.7383C67.5268 90.7428 67.3559 90.7725 67.1508 90.8271C66.9457 90.8773 66.8432 90.9479 66.8432 91.0391C66.8432 91.0527 66.8546 91.0892 66.8773 91.1484C66.9001 91.2031 66.9229 91.2669 66.9457 91.3398C67.1326 91.8047 67.3969 92.4541 67.7387 93.2881C68.0805 94.1221 68.3585 94.7943 68.5727 95.3047C68.7367 94.9128 68.9418 94.4251 69.1879 93.8418C69.4385 93.2585 69.7074 92.6068 69.9945 91.8867C70.0401 91.7637 70.0834 91.6497 70.1244 91.5449C70.1654 91.4355 70.1859 91.3262 70.1859 91.2168C70.1859 91.1393 70.1472 91.071 70.0697 91.0117C69.9968 90.9479 69.9079 90.8932 69.8031 90.8477C69.6983 90.8021 69.5958 90.7679 69.4955 90.7451C69.3952 90.7223 69.3132 90.7064 69.2494 90.6973V90.2598H71.8266V90.6768ZM79.5156 95.4141C79.2331 95.9518 78.8548 96.3802 78.3809 96.6992C77.9069 97.0182 77.3623 97.1777 76.7471 97.1777C76.2048 97.1777 75.7285 97.082 75.3184 96.8906C74.9128 96.6992 74.5778 96.4395 74.3135 96.1113C74.0492 95.7832 73.8509 95.4004 73.7188 94.9629C73.5911 94.5254 73.5273 94.0628 73.5273 93.5752C73.5273 93.1377 73.5957 92.7093 73.7324 92.29C73.8737 91.8662 74.0788 91.4857 74.3477 91.1484C74.6074 90.8249 74.9287 90.5651 75.3115 90.3691C75.6989 90.1686 76.1318 90.0684 76.6104 90.0684C77.1025 90.0684 77.5241 90.1458 77.875 90.3008C78.2259 90.4557 78.5107 90.6676 78.7295 90.9365C78.9391 91.1917 79.0941 91.4925 79.1943 91.8389C79.2992 92.1852 79.3516 92.5612 79.3516 92.9668V93.418H74.8877C74.8877 93.86 74.9287 94.2611 75.0107 94.6211C75.0973 94.9811 75.2318 95.2979 75.4141 95.5713C75.5918 95.8356 75.8242 96.0452 76.1113 96.2002C76.3984 96.3506 76.7402 96.4258 77.1367 96.4258C77.5423 96.4258 77.891 96.3324 78.1826 96.1455C78.4788 95.9541 78.7637 95.6123 79.0371 95.1201L79.5156 95.4141ZM78.0049 92.8438C78.0049 92.5885 77.9821 92.3151 77.9365 92.0234C77.8955 91.7318 77.8271 91.488 77.7314 91.292C77.6266 91.0824 77.4831 90.9115 77.3008 90.7793C77.1185 90.6471 76.8838 90.5811 76.5967 90.5811C76.1182 90.5811 75.7194 90.7816 75.4004 91.1826C75.0859 91.5791 74.915 92.1328 74.8877 92.8438H78.0049ZM86.1451 93.6982C86.332 93.8623 86.4755 94.0514 86.5758 94.2656C86.676 94.4798 86.7262 94.7419 86.7262 95.0518C86.7262 95.6761 86.4915 96.1865 86.0221 96.583C85.5572 96.9795 84.9534 97.1777 84.2105 97.1777C83.8186 97.1777 83.4563 97.1071 83.1236 96.9658C82.7955 96.8245 82.5608 96.6947 82.4195 96.5762L82.2828 97.0205H81.7701L81.7018 94.6758H82.1734C82.2099 94.8535 82.2874 95.0609 82.4059 95.2979C82.5244 95.5348 82.6679 95.749 82.8365 95.9404C83.0143 96.141 83.2262 96.3096 83.4723 96.4463C83.7229 96.583 84.0032 96.6514 84.3131 96.6514C84.7506 96.6514 85.0878 96.5534 85.3248 96.3574C85.5618 96.1569 85.6803 95.8721 85.6803 95.5029C85.6803 95.3115 85.6415 95.1475 85.5641 95.0107C85.4911 94.8695 85.3818 94.7464 85.2359 94.6416C85.0855 94.5368 84.901 94.4434 84.6822 94.3613C84.4635 94.2747 84.2197 94.1904 83.9508 94.1084C83.7366 94.0446 83.4973 93.958 83.233 93.8486C82.9732 93.7347 82.7499 93.6025 82.5631 93.4521C82.3626 93.2926 82.1985 93.0967 82.0709 92.8643C81.9433 92.6318 81.8795 92.3584 81.8795 92.0439C81.8795 91.4925 82.0846 91.0254 82.4947 90.6426C82.9049 90.2598 83.454 90.0684 84.1422 90.0684C84.4065 90.0684 84.6754 90.1025 84.9488 90.1709C85.2268 90.2393 85.4524 90.3213 85.6256 90.417L85.7828 90.0615H86.275L86.3775 92.2285H85.9059C85.8102 91.7454 85.6028 91.3535 85.2838 91.0527C84.9693 90.7474 84.5842 90.5947 84.1285 90.5947C83.7548 90.5947 83.4609 90.6882 83.2467 90.875C83.0325 91.0618 82.9254 91.2874 82.9254 91.5518C82.9254 91.7568 82.9596 91.9277 83.0279 92.0645C83.1008 92.2012 83.2079 92.3174 83.3492 92.4131C83.4859 92.5042 83.6568 92.5908 83.8619 92.6729C84.0716 92.7503 84.329 92.8392 84.6344 92.9395C84.9352 93.0352 85.2177 93.1468 85.482 93.2744C85.7509 93.402 85.9719 93.5433 86.1451 93.6982ZM91.4963 96.2139C91.4963 96.4691 91.4029 96.6878 91.216 96.8701C91.0337 97.0479 90.815 97.1367 90.5598 97.1367C90.3046 97.1367 90.0835 97.0479 89.8967 96.8701C89.7144 96.6878 89.6232 96.4691 89.6232 96.2139C89.6232 95.9587 89.7144 95.7399 89.8967 95.5576C90.0835 95.3708 90.3046 95.2773 90.5598 95.2773C90.815 95.2773 91.0337 95.3708 91.216 95.5576C91.4029 95.7399 91.4963 95.9587 91.4963 96.2139Z" fill="#222222"/>
</svg>
