<svg width="250" height="20" viewBox="0 0 250 20" fill="none" xmlns="http://www.w3.org/2000/svg">
<path fill-rule="evenodd" clip-rule="evenodd" d="M122.233 5.80513e-05C121.388 -0.00394182 120.556 0.198818 119.811 0.589965C119.066 0.981112 118.433 1.54828 117.968 2.24009C117.503 2.9319 117.222 3.72647 117.149 4.55182C117.077 5.37716 117.215 6.2072 117.553 6.96671C116.567 7.91115 116 9.20003 116 10.5556C116 13.3334 118.267 15.5556 121.1 15.5556C121.667 15.5556 122.233 15.4333 122.8 15.2445V20H125.067V14.1889C125.633 14.3445 126.2 14.4445 126.767 14.4445C127.585 14.4445 128.396 14.2864 129.152 13.9793C129.908 13.6722 130.595 13.222 131.174 12.6546C131.753 12.0871 132.212 11.4134 132.526 10.672C132.839 9.93055 133 9.13589 133 8.33337C133 7.53085 132.839 6.73619 132.526 5.99475C132.212 5.25332 131.753 4.57964 131.174 4.01217C130.595 3.4447 129.908 2.99456 129.152 2.68745C128.396 2.38034 127.585 2.22227 126.767 2.22227H126.472C125.531 0.8445 123.933 5.80513e-05 122.233 5.80513e-05ZM122.233 2.22227C123.729 2.22227 124.965 3.36672 125.067 4.83338C125.588 4.57782 126.2 4.44449 126.767 4.44449C127.819 4.44449 128.828 4.85421 129.572 5.58352C130.315 6.31282 130.733 7.30197 130.733 8.33337C130.733 9.36476 130.315 10.3539 129.572 11.0832C128.828 11.8125 127.819 12.2222 126.767 12.2222C125.679 12.2222 124.647 11.7889 123.888 11.0111C123.78 11.6597 123.44 12.2494 122.93 12.6749C122.419 13.1003 121.77 13.3337 121.1 13.3334C120.349 13.3334 119.628 13.0407 119.097 12.5198C118.565 11.9988 118.267 11.2923 118.267 10.5556C118.267 9.02225 119.173 8.37781 120.533 7.54448C119.627 6.40004 119.4 5.73338 119.4 5.00004C119.4 4.26333 119.699 3.5568 120.23 3.03586C120.761 2.51493 121.482 2.22227 122.233 2.22227Z" fill="white"/>
<path d="M101 10H0V9H101V10Z" fill="white"/>
<path d="M148 10.5H250V9.5H148V10.5Z" fill="white"/>
</svg>
