<svg width="250" height="20" viewBox="0 0 250 20" fill="none" xmlns="http://www.w3.org/2000/svg">
<path d="M120.5 12C120.303 12 120.108 11.9612 119.926 11.8858C119.744 11.8104 119.579 11.6999 119.439 11.5607C119.3 11.4214 119.19 11.256 119.114 11.074C119.039 10.892 119 10.697 119 10.5C119 10.303 119.039 10.108 119.114 9.92597C119.19 9.74399 119.3 9.57863 119.439 9.43934C119.579 9.30005 119.744 9.18956 119.926 9.11418C120.108 9.0388 120.303 9 120.5 9C120.898 9 121.279 9.15804 121.561 9.43934C121.842 9.72064 122 10.1022 122 10.5C122 10.8978 121.842 11.2794 121.561 11.5607C121.279 11.842 120.898 12 120.5 12Z" fill="white"/>
<path d="M129.5 12C129.303 12 129.108 11.9612 128.926 11.8858C128.744 11.8104 128.579 11.6999 128.439 11.5607C128.3 11.4214 128.19 11.256 128.114 11.074C128.039 10.892 128 10.697 128 10.5C128 10.303 128.039 10.108 128.114 9.92597C128.19 9.74399 128.3 9.57863 128.439 9.43934C128.579 9.30005 128.744 9.18956 128.926 9.11418C129.108 9.0388 129.303 9 129.5 9C129.898 9 130.279 9.15804 130.561 9.43934C130.842 9.72064 131 10.1022 131 10.5C131 10.8978 130.842 11.2794 130.561 11.5607C130.279 11.842 129.898 12 129.5 12Z" fill="white"/>
<path fill-rule="evenodd" clip-rule="evenodd" d="M131 16V19C131 19.2652 130.895 19.5196 130.707 19.7071C130.52 19.8946 130.265 20 130 20H120C119.735 20 119.48 19.8946 119.293 19.7071C119.105 19.5196 119 19.2652 119 19V16H116C115.735 16 115.48 15.8946 115.293 15.7071C115.105 15.5196 115 15.2652 115 15V10C115 4.477 119.477 0 125 0C130.523 0 135 4.477 135 10V15C135 15.2652 134.895 15.5196 134.707 15.7071C134.52 15.8946 134.265 16 134 16H131ZM133 10C133 7.87827 132.157 5.84344 130.657 4.34315C129.157 2.84285 127.122 2 125 2C122.878 2 120.843 2.84285 119.343 4.34315C117.843 5.84344 117 7.87827 117 10V14H120C120.265 14 120.52 14.1054 120.707 14.2929C120.895 14.4804 121 14.7348 121 15V18H129V15C129 14.7348 129.105 14.4804 129.293 14.2929C129.48 14.1054 129.735 14 130 14H133V10Z" fill="white"/>
<path d="M0 10H100V11H0V10Z" fill="white"/>
<path d="M250 10H150V11H250V10Z" fill="white"/>
</svg>
